<svg width="3653" height="2195" xmlns="http://www.w3.org/2000/svg" xmlns:xlink="http://www.w3.org/1999/xlink" xml:space="preserve" overflow="hidden"><defs><clipPath id="clip0"><rect x="2099" y="160" width="3653" height="2195"/></clipPath><clipPath id="clip1"><rect x="2099" y="160" width="3653" height="2195"/></clipPath></defs><g clip-path="url(#clip0)" transform="translate(-2099 -160)"><g clip-path="url(#clip1)"><rect x="2104" y="165" width="3643" height="2186" fill="#FFFFFF" fill-opacity="1"/><g><path d="M2265.5 1779.56 5676.5 1779.56M2265.5 1418.55 5676.5 1418.55M2265.5 1057.53 5676.5 1057.53M2265.5 696.523 5676.5 696.523M2265.5 334.5 5676.5 334.5" stroke="#D9D9D9" stroke-width="3.4375" stroke-linecap="butt" stroke-linejoin="round" stroke-miterlimit="10" stroke-opacity="1" fill="none" fill-rule="nonzero"/></g><g><path d="M2753.59 334.5 2753.59 2140.5M3240.61 334.5 3240.61 2140.5M3727.62 334.5 3727.62 2140.5M4214.64 334.5 4214.64 2140.5M4701.65 334.5 4701.65 2140.5M5188.67 334.5 5188.67 2140.5M5676.5 334.5 5676.5 2140.5" stroke="#D9D9D9" stroke-width="3.4375" stroke-linecap="butt" stroke-linejoin="round" stroke-miterlimit="10" stroke-opacity="1" fill="none" fill-rule="nonzero"/></g><g><path d="M0 0 0.000360892 1806" stroke="#BFBFBF" stroke-width="3.4375" stroke-linecap="butt" stroke-linejoin="round" stroke-miterlimit="10" stroke-opacity="1" fill="none" fill-rule="evenodd" transform="matrix(1 0 0 -1 2265.5 2140.5)"/></g><g><path d="M2265.5 2140.5 5676.5 2140.5" stroke="#BFBFBF" stroke-width="3.4375" stroke-linecap="butt" stroke-linejoin="round" stroke-miterlimit="10" stroke-opacity="1" fill="none" fill-rule="evenodd"/></g><g><path d="M2460.5 1764.5 2753.59 1673.56 3240.61 1503.55 4214.64 987.533 5335.5 684.5" stroke="#196B24" stroke-width="6.875" stroke-linecap="round" stroke-linejoin="round" stroke-miterlimit="10" stroke-opacity="1" fill="none" fill-rule="nonzero"/></g><g><path d="M2471.25 1764.5C2471.25 1770.57 2466.32 1775.5 2460.25 1775.5 2454.17 1775.5 2449.25 1770.57 2449.25 1764.5 2449.25 1758.42 2454.17 1753.5 2460.25 1753.5 2466.32 1753.5 2471.25 1758.42 2471.25 1764.5Z" stroke="#196B24" stroke-width="3.4375" stroke-linecap="butt" stroke-linejoin="round" stroke-miterlimit="10" stroke-opacity="1" fill="#196B24" fill-rule="nonzero" fill-opacity="1"/><path d="M2764.25 1673.5C2764.25 1679.57 2759.32 1684.5 2753.25 1684.5 2747.17 1684.5 2742.25 1679.57 2742.25 1673.5 2742.25 1667.42 2747.17 1662.5 2753.25 1662.5 2759.32 1662.5 2764.25 1667.42 2764.25 1673.5Z" stroke="#196B24" stroke-width="3.4375" stroke-linecap="butt" stroke-linejoin="round" stroke-miterlimit="10" stroke-opacity="1" fill="#196B24" fill-rule="nonzero" fill-opacity="1"/><path d="M3251.25 1503.5C3251.25 1509.57 3246.32 1514.5 3240.25 1514.5 3234.17 1514.5 3229.25 1509.57 3229.25 1503.5 3229.25 1497.42 3234.17 1492.5 3240.25 1492.5 3246.32 1492.5 3251.25 1497.42 3251.25 1503.5Z" stroke="#196B24" stroke-width="3.4375" stroke-linecap="butt" stroke-linejoin="round" stroke-miterlimit="10" stroke-opacity="1" fill="#196B24" fill-rule="nonzero" fill-opacity="1"/><path d="M4225.25 987.5C4225.25 993.575 4220.32 998.499 4214.25 998.499 4208.17 998.499 4203.25 993.575 4203.25 987.5 4203.25 981.425 4208.17 976.5 4214.25 976.5 4220.32 976.5 4225.25 981.425 4225.25 987.5Z" stroke="#196B24" stroke-width="3.4375" stroke-linecap="butt" stroke-linejoin="round" stroke-miterlimit="10" stroke-opacity="1" fill="#196B24" fill-rule="nonzero" fill-opacity="1"/><path d="M5346.25 684.5C5346.25 690.574 5341.32 695.499 5335.25 695.499 5329.17 695.499 5324.25 690.574 5324.25 684.5 5324.25 678.425 5329.17 673.5 5335.25 673.5 5341.32 673.5 5346.25 678.425 5346.25 684.5Z" stroke="#196B24" stroke-width="3.4375" stroke-linecap="butt" stroke-linejoin="round" stroke-miterlimit="10" stroke-opacity="1" fill="#196B24" fill-rule="nonzero" fill-opacity="1"/></g><g><path d="M2558.5 1920.5 2753.59 1905.56 3240.61 1880.56 4214.64 1815.56 5335.5 1786.5" stroke="#0F9ED5" stroke-width="6.875" stroke-linecap="round" stroke-linejoin="round" stroke-miterlimit="10" stroke-opacity="1" fill="none" fill-rule="nonzero"/></g><g><path d="M2569.25 1920.5C2569.25 1926.57 2564.32 1931.5 2558.25 1931.5 2552.17 1931.5 2547.25 1926.57 2547.25 1920.5 2547.25 1914.42 2552.17 1909.5 2558.25 1909.5 2564.32 1909.5 2569.25 1914.42 2569.25 1920.5Z" stroke="#0F9ED5" stroke-width="3.4375" stroke-linecap="butt" stroke-linejoin="round" stroke-miterlimit="10" stroke-opacity="1" fill="#0F9ED5" fill-rule="nonzero" fill-opacity="1"/><path d="M2764.25 1905.5C2764.25 1911.57 2759.32 1916.5 2753.25 1916.5 2747.17 1916.5 2742.25 1911.57 2742.25 1905.5 2742.25 1899.42 2747.17 1894.5 2753.25 1894.5 2759.32 1894.5 2764.25 1899.42 2764.25 1905.5Z" stroke="#0F9ED5" stroke-width="3.4375" stroke-linecap="butt" stroke-linejoin="round" stroke-miterlimit="10" stroke-opacity="1" fill="#0F9ED5" fill-rule="nonzero" fill-opacity="1"/><path d="M3251.25 1880.5C3251.25 1886.57 3246.32 1891.5 3240.25 1891.5 3234.17 1891.5 3229.25 1886.57 3229.25 1880.5 3229.25 1874.42 3234.17 1869.5 3240.25 1869.5 3246.32 1869.5 3251.25 1874.42 3251.25 1880.5Z" stroke="#0F9ED5" stroke-width="3.4375" stroke-linecap="butt" stroke-linejoin="round" stroke-miterlimit="10" stroke-opacity="1" fill="#0F9ED5" fill-rule="nonzero" fill-opacity="1"/><path d="M4225.25 1815.5C4225.25 1821.57 4220.32 1826.5 4214.25 1826.5 4208.17 1826.5 4203.25 1821.57 4203.25 1815.5 4203.25 1809.42 4208.17 1804.5 4214.25 1804.5 4220.32 1804.5 4225.25 1809.42 4225.25 1815.5Z" stroke="#0F9ED5" stroke-width="3.4375" stroke-linecap="butt" stroke-linejoin="round" stroke-miterlimit="10" stroke-opacity="1" fill="#0F9ED5" fill-rule="nonzero" fill-opacity="1"/><path d="M5346.25 1786.5C5346.25 1792.57 5341.32 1797.5 5335.25 1797.5 5329.17 1797.5 5324.25 1792.57 5324.25 1786.5 5324.25 1780.42 5329.17 1775.5 5335.25 1775.5 5341.32 1775.5 5346.25 1780.42 5346.25 1786.5Z" stroke="#0F9ED5" stroke-width="3.4375" stroke-linecap="butt" stroke-linejoin="round" stroke-miterlimit="10" stroke-opacity="1" fill="#0F9ED5" fill-rule="nonzero" fill-opacity="1"/></g><g><path d="M2558.5 2067.5 2753.59 2093.57 3240.61 2114.57 4214.64 2124.57 5335.5 2129.5" stroke="#E97132" stroke-width="6.875" stroke-linecap="round" stroke-linejoin="round" stroke-miterlimit="10" stroke-opacity="1" fill="none" fill-rule="nonzero"/></g><g><path d="M2569.25 2067.5C2569.25 2073.57 2564.32 2078.5 2558.25 2078.5 2552.17 2078.5 2547.25 2073.57 2547.25 2067.5 2547.25 2061.42 2552.17 2056.5 2558.25 2056.5 2564.32 2056.5 2569.25 2061.42 2569.25 2067.5Z" stroke="#E97132" stroke-width="3.4375" stroke-linecap="butt" stroke-linejoin="round" stroke-miterlimit="10" stroke-opacity="1" fill="#E97132" fill-rule="nonzero" fill-opacity="1"/><path d="M2764.25 2093.5C2764.25 2099.57 2759.32 2104.5 2753.25 2104.5 2747.17 2104.5 2742.25 2099.57 2742.25 2093.5 2742.25 2087.42 2747.17 2082.5 2753.25 2082.5 2759.32 2082.5 2764.25 2087.42 2764.25 2093.5Z" stroke="#E97132" stroke-width="3.4375" stroke-linecap="butt" stroke-linejoin="round" stroke-miterlimit="10" stroke-opacity="1" fill="#E97132" fill-rule="nonzero" fill-opacity="1"/><path d="M3251.25 2114.5C3251.25 2120.57 3246.32 2125.5 3240.25 2125.5 3234.17 2125.5 3229.25 2120.57 3229.25 2114.5 3229.25 2108.42 3234.17 2103.5 3240.25 2103.5 3246.32 2103.5 3251.25 2108.42 3251.25 2114.5Z" stroke="#E97132" stroke-width="3.4375" stroke-linecap="butt" stroke-linejoin="round" stroke-miterlimit="10" stroke-opacity="1" fill="#E97132" fill-rule="nonzero" fill-opacity="1"/><path d="M4225.25 2124.5C4225.25 2130.57 4220.32 2135.5 4214.25 2135.5 4208.17 2135.5 4203.25 2130.57 4203.25 2124.5 4203.25 2118.42 4208.17 2113.5 4214.25 2113.5 4220.32 2113.5 4225.25 2118.42 4225.25 2124.5Z" stroke="#E97132" stroke-width="3.4375" stroke-linecap="butt" stroke-linejoin="round" stroke-miterlimit="10" stroke-opacity="1" fill="#E97132" fill-rule="nonzero" fill-opacity="1"/><path d="M5346.25 2129.5C5346.25 2135.57 5341.32 2140.5 5335.25 2140.5 5329.17 2140.5 5324.25 2135.57 5324.25 2129.5 5324.25 2123.42 5329.17 2118.5 5335.25 2118.5 5341.32 2118.5 5346.25 2123.42 5346.25 2129.5Z" stroke="#E97132" stroke-width="3.4375" stroke-linecap="butt" stroke-linejoin="round" stroke-miterlimit="10" stroke-opacity="1" fill="#E97132" fill-rule="nonzero" fill-opacity="1"/></g><g><path d="M2460.5 1952.5 2753.59 2047.57 3240.61 2076.57 4214.64 2082.57 5335.5 2094.5" stroke="#156082" stroke-width="6.875" stroke-linecap="round" stroke-linejoin="round" stroke-miterlimit="10" stroke-opacity="1" fill="none" fill-rule="nonzero"/></g><g><path d="M2471.25 1952.5C2471.25 1958.57 2466.32 1963.5 2460.25 1963.5 2454.17 1963.5 2449.25 1958.57 2449.25 1952.5 2449.25 1946.42 2454.17 1941.5 2460.25 1941.5 2466.32 1941.5 2471.25 1946.42 2471.25 1952.5Z" stroke="#156082" stroke-width="3.4375" stroke-linecap="butt" stroke-linejoin="round" stroke-miterlimit="10" stroke-opacity="1" fill="#156082" fill-rule="nonzero" fill-opacity="1"/><path d="M2764.25 2047.5C2764.25 2053.57 2759.32 2058.5 2753.25 2058.5 2747.17 2058.5 2742.25 2053.57 2742.25 2047.5 2742.25 2041.42 2747.17 2036.5 2753.25 2036.5 2759.32 2036.5 2764.25 2041.42 2764.25 2047.5Z" stroke="#156082" stroke-width="3.4375" stroke-linecap="butt" stroke-linejoin="round" stroke-miterlimit="10" stroke-opacity="1" fill="#156082" fill-rule="nonzero" fill-opacity="1"/><path d="M3251.25 2076.5C3251.25 2082.57 3246.32 2087.5 3240.25 2087.5 3234.17 2087.5 3229.25 2082.57 3229.25 2076.5 3229.25 2070.42 3234.17 2065.5 3240.25 2065.5 3246.32 2065.5 3251.25 2070.42 3251.25 2076.5Z" stroke="#156082" stroke-width="3.4375" stroke-linecap="butt" stroke-linejoin="round" stroke-miterlimit="10" stroke-opacity="1" fill="#156082" fill-rule="nonzero" fill-opacity="1"/><path d="M4225.25 2082.5C4225.25 2088.57 4220.32 2093.5 4214.25 2093.5 4208.17 2093.5 4203.25 2088.57 4203.25 2082.5 4203.25 2076.42 4208.17 2071.5 4214.25 2071.5 4220.32 2071.5 4225.25 2076.42 4225.25 2082.5Z" stroke="#156082" stroke-width="3.4375" stroke-linecap="butt" stroke-linejoin="round" stroke-miterlimit="10" stroke-opacity="1" fill="#156082" fill-rule="nonzero" fill-opacity="1"/><path d="M5346.25 2094.5C5346.25 2100.57 5341.32 2105.5 5335.25 2105.5 5329.17 2105.5 5324.25 2100.57 5324.25 2094.5 5324.25 2088.42 5329.17 2083.5 5335.25 2083.5 5341.32 2083.5 5346.25 2088.42 5346.25 2094.5Z" stroke="#156082" stroke-width="3.4375" stroke-linecap="butt" stroke-linejoin="round" stroke-miterlimit="10" stroke-opacity="1" fill="#156082" fill-rule="nonzero" fill-opacity="1"/></g><g><text fill="#595959" fill-opacity="1" font-family="Aptos Narrow,Aptos Narrow_MSFontService,sans-serif" font-style="normal" font-variant="normal" font-weight="400" font-stretch="semi-condensed" font-size="41" text-anchor="start" direction="ltr" writing-mode="lr-tb" unicode-bidi="normal" text-decoration="none" transform="matrix(1 0 0 1 2154.44 2151)">0.00</text></g><g><text fill="#595959" fill-opacity="1" font-family="Aptos Narrow,Aptos Narrow_MSFontService,sans-serif" font-style="normal" font-variant="normal" font-weight="400" font-stretch="semi-condensed" font-size="41" text-anchor="start" direction="ltr" writing-mode="lr-tb" unicode-bidi="normal" text-decoration="none" transform="matrix(1 0 0 1 2154.44 1790)">5.00</text></g><g><text fill="#595959" fill-opacity="1" font-family="Aptos Narrow,Aptos Narrow_MSFontService,sans-serif" font-style="normal" font-variant="normal" font-weight="400" font-stretch="semi-condensed" font-size="41" text-anchor="start" direction="ltr" writing-mode="lr-tb" unicode-bidi="normal" text-decoration="none" transform="matrix(1 0 0 1 2133.54 1429)">10.00</text></g><g><text fill="#595959" fill-opacity="1" font-family="Aptos Narrow,Aptos Narrow_MSFontService,sans-serif" font-style="normal" font-variant="normal" font-weight="400" font-stretch="semi-condensed" font-size="41" text-anchor="start" direction="ltr" writing-mode="lr-tb" unicode-bidi="normal" text-decoration="none" transform="matrix(1 0 0 1 2133.54 1068)">15.00</text></g><g><text fill="#595959" fill-opacity="1" font-family="Aptos Narrow,Aptos Narrow_MSFontService,sans-serif" font-style="normal" font-variant="normal" font-weight="400" font-stretch="semi-condensed" font-size="41" text-anchor="start" direction="ltr" writing-mode="lr-tb" unicode-bidi="normal" text-decoration="none" transform="matrix(1 0 0 1 2133.54 707)">20.00</text></g><g><text fill="#595959" fill-opacity="1" font-family="Aptos Narrow,Aptos Narrow_MSFontService,sans-serif" font-style="normal" font-variant="normal" font-weight="400" font-stretch="semi-condensed" font-size="41" text-anchor="start" direction="ltr" writing-mode="lr-tb" unicode-bidi="normal" text-decoration="none" transform="matrix(1 0 0 1 2133.54 346)">25.00</text></g><g><text fill="#595959" fill-opacity="1" font-family="Aptos Narrow,Aptos Narrow_MSFontService,sans-serif" font-style="normal" font-variant="normal" font-weight="400" font-stretch="semi-condensed" font-size="41" text-anchor="start" direction="ltr" writing-mode="lr-tb" unicode-bidi="normal" text-decoration="none" transform="matrix(1 0 0 1 2255.5 2205)">0</text></g><g><text fill="#595959" fill-opacity="1" font-family="Aptos Narrow,Aptos Narrow_MSFontService,sans-serif" font-style="normal" font-variant="normal" font-weight="400" font-stretch="semi-condensed" font-size="41" text-anchor="start" direction="ltr" writing-mode="lr-tb" unicode-bidi="normal" text-decoration="none" transform="matrix(1 0 0 1 2742.68 2205)">5</text></g><g><text fill="#595959" fill-opacity="1" font-family="Aptos Narrow,Aptos Narrow_MSFontService,sans-serif" font-style="normal" font-variant="normal" font-weight="400" font-stretch="semi-condensed" font-size="41" text-anchor="start" direction="ltr" writing-mode="lr-tb" unicode-bidi="normal" text-decoration="none" transform="matrix(1 0 0 1 3219.4 2205)">10</text></g><g><text fill="#595959" fill-opacity="1" font-family="Aptos Narrow,Aptos Narrow_MSFontService,sans-serif" font-style="normal" font-variant="normal" font-weight="400" font-stretch="semi-condensed" font-size="41" text-anchor="start" direction="ltr" writing-mode="lr-tb" unicode-bidi="normal" text-decoration="none" transform="matrix(1 0 0 1 3706.58 2205)">15</text></g><g><text fill="#595959" fill-opacity="1" font-family="Aptos Narrow,Aptos Narrow_MSFontService,sans-serif" font-style="normal" font-variant="normal" font-weight="400" font-stretch="semi-condensed" font-size="41" text-anchor="start" direction="ltr" writing-mode="lr-tb" unicode-bidi="normal" text-decoration="none" transform="matrix(1 0 0 1 4193.75 2205)">20</text></g><g><text fill="#595959" fill-opacity="1" font-family="Aptos Narrow,Aptos Narrow_MSFontService,sans-serif" font-style="normal" font-variant="normal" font-weight="400" font-stretch="semi-condensed" font-size="41" text-anchor="start" direction="ltr" writing-mode="lr-tb" unicode-bidi="normal" text-decoration="none" transform="matrix(1 0 0 1 4680.93 2205)">25</text></g><g><text fill="#595959" fill-opacity="1" font-family="Aptos Narrow,Aptos Narrow_MSFontService,sans-serif" font-style="normal" font-variant="normal" font-weight="400" font-stretch="semi-condensed" font-size="41" text-anchor="start" direction="ltr" writing-mode="lr-tb" unicode-bidi="normal" text-decoration="none" transform="matrix(1 0 0 1 5168.11 2205)">30</text></g><g><text fill="#595959" fill-opacity="1" font-family="Aptos Narrow,Aptos Narrow_MSFontService,sans-serif" font-style="normal" font-variant="normal" font-weight="400" font-stretch="semi-condensed" font-size="41" text-anchor="start" direction="ltr" writing-mode="lr-tb" unicode-bidi="normal" text-decoration="none" transform="matrix(1 0 0 1 5655.28 2205)">35</text></g><g><text fill="#595959" fill-opacity="1" font-family="Aptos Narrow,Aptos Narrow_MSFontService,sans-serif" font-style="normal" font-variant="normal" font-weight="400" font-stretch="semi-condensed" font-size="64" text-anchor="start" direction="ltr" writing-mode="lr-tb" unicode-bidi="normal" text-decoration="none" transform="matrix(1 0 0 1 3488.75 259)">Versandkosten DPD DHL Vergleich</text></g><g><path d="M3326.5 2285.5 3414.5 2285.5" stroke="#196B24" stroke-width="6.875" stroke-linecap="round" stroke-linejoin="round" stroke-miterlimit="10" stroke-opacity="1" fill="none" fill-rule="evenodd"/></g><g><path d="M3381 2285C3381 2291.07 3376.07 2296 3370 2296 3363.93 2296 3359 2291.07 3359 2285 3359 2278.92 3363.93 2274 3370 2274 3376.07 2274 3381 2278.92 3381 2285Z" stroke="#196B24" stroke-width="3.4375" stroke-linecap="butt" stroke-linejoin="round" stroke-miterlimit="10" stroke-opacity="1" fill="#196B24" fill-rule="nonzero" fill-opacity="1"/></g><g><text fill="#595959" fill-opacity="1" font-family="Aptos Narrow,Aptos Narrow_MSFontService,sans-serif" font-style="normal" font-variant="normal" font-weight="400" font-stretch="semi-condensed" font-size="41" text-anchor="start" direction="ltr" writing-mode="lr-tb" unicode-bidi="normal" text-decoration="none" transform="matrix(1 0 0 1 3423.41 2296)">DHL net</text></g><g><path d="M3612.5 2285.5 3700.5 2285.5" stroke="#0F9ED5" stroke-width="6.875" stroke-linecap="round" stroke-linejoin="round" stroke-miterlimit="10" stroke-opacity="1" fill="none" fill-rule="evenodd"/></g><g><path d="M3667 2285C3667 2291.07 3662.07 2296 3656 2296 3649.93 2296 3645 2291.07 3645 2285 3645 2278.92 3649.93 2274 3656 2274 3662.07 2274 3667 2278.92 3667 2285Z" stroke="#0F9ED5" stroke-width="3.4375" stroke-linecap="butt" stroke-linejoin="round" stroke-miterlimit="10" stroke-opacity="1" fill="#0F9ED5" fill-rule="nonzero" fill-opacity="1"/></g><g><text fill="#595959" fill-opacity="1" font-family="Aptos Narrow,Aptos Narrow_MSFontService,sans-serif" font-style="normal" font-variant="normal" font-weight="400" font-stretch="semi-condensed" font-size="41" text-anchor="start" direction="ltr" writing-mode="lr-tb" unicode-bidi="normal" text-decoration="none" transform="matrix(1 0 0 1 3709.49 2296)">DPD net</text></g><g><path d="M3900.5 2285.5 3988.5 2285.5" stroke="#E97132" stroke-width="6.875" stroke-linecap="round" stroke-linejoin="round" stroke-miterlimit="10" stroke-opacity="1" fill="none" fill-rule="evenodd"/></g><g><path d="M3955 2285C3955 2291.07 3950.07 2296 3944 2296 3937.93 2296 3933 2291.07 3933 2285 3933 2278.92 3937.93 2274 3944 2274 3950.07 2274 3955 2278.92 3955 2285Z" stroke="#E97132" stroke-width="3.4375" stroke-linecap="butt" stroke-linejoin="round" stroke-miterlimit="10" stroke-opacity="1" fill="#E97132" fill-rule="nonzero" fill-opacity="1"/></g><g><text fill="#595959" fill-opacity="1" font-family="Aptos Narrow,Aptos Narrow_MSFontService,sans-serif" font-style="normal" font-variant="normal" font-weight="400" font-stretch="semi-condensed" font-size="41" text-anchor="start" direction="ltr" writing-mode="lr-tb" unicode-bidi="normal" text-decoration="none" transform="matrix(1 0 0 1 3997.77 2296)">DPD net /kg</text></g><g><path d="M4246.5 2285.5 4334.5 2285.5" stroke="#156082" stroke-width="6.875" stroke-linecap="round" stroke-linejoin="round" stroke-miterlimit="10" stroke-opacity="1" fill="none" fill-rule="evenodd"/></g><g><path d="M4301.02 2285C4301.02 2291.07 4296.31 2296 4290.5 2296 4284.69 2296 4279.98 2291.07 4279.98 2285 4279.98 2278.92 4284.69 2274 4290.5 2274 4296.31 2274 4301.02 2278.92 4301.02 2285Z" stroke="#156082" stroke-width="3.4375" stroke-linecap="butt" stroke-linejoin="round" stroke-miterlimit="10" stroke-opacity="1" fill="#156082" fill-rule="nonzero" fill-opacity="1"/></g><g><text fill="#595959" fill-opacity="1" font-family="Aptos Narrow,Aptos Narrow_MSFontService,sans-serif" font-style="normal" font-variant="normal" font-weight="400" font-stretch="semi-condensed" font-size="41" text-anchor="start" direction="ltr" writing-mode="lr-tb" unicode-bidi="normal" text-decoration="none" transform="matrix(1 0 0 1 4343.69 2296)">DHL net / kg</text></g><rect x="2104.5" y="165.5" width="3643" height="2186" stroke="#D9D9D9" stroke-width="3.4375" stroke-linecap="butt" stroke-linejoin="round" stroke-miterlimit="10" stroke-opacity="1" fill="none"/></g></g></svg>